<svg width="21" height="22" viewBox="0 0 21 22" fill="none" xmlns="http://www.w3.org/2000/svg">
<path d="M20.1434 21.1892L20.1491 17.0374L20.1716 0.476331C20.172 0.228458 19.9711 0.0271721 19.7233 0.0268345L0.478408 0.000611748C0.230227 0.00027358 0.0291726 0.201012 0.0288348 0.448885L0.00344049 19.0858C0.0015436 20.4779 1.13277 21.6123 2.5249 21.6142L19.6938 21.6376C19.9415 21.6379 20.1431 21.4372 20.1434 21.1892ZM18.5793 16.5644L2.53178 16.5644C1.91194 16.5636 2.25426 16.2158 1.81411 16.5872L1.81411 1.8125L18.5792 1.8125L18.5793 16.5644Z" fill="white"/>
<path d="M3.48675 8.59831L16.6915 8.6163C16.9391 8.61664 17.1406 8.41612 17.141 8.16816L17.1475 3.34264C17.1479 3.09475 16.9469 2.89345 16.6993 2.89312L3.49454 2.87512C3.24681 2.87479 3.04529 3.07553 3.04495 3.32342L3.03837 8.14887C3.03811 8.39691 3.23909 8.59797 3.48675 8.59831ZM4.57925 4.3125L15.5793 4.3125L15.5793 7.3125L4.57925 7.3125L4.57925 4.3125Z" fill="white"/>
</svg>
