<svg width="123" height="123" viewBox="0 0 123 123" fill="none" xmlns="http://www.w3.org/2000/svg">
<g clip-path="url(#clip0_614_2)">
<path fill-rule="evenodd" clip-rule="evenodd" d="M122.88 61.44C122.88 27.51 95.37 0 61.44 0C27.51 0 0 27.51 0 61.44C0 95.37 27.51 122.88 61.44 122.88C95.37 122.88 122.88 95.37 122.88 61.44ZM68.79 74.58H51.3V72.83C51.3 69.86 51.62 67.44 52.3 65.58C52.98 63.71 53.98 62.03 55.31 60.48C56.65 58.94 59.66 56.25 64.32 52.37C66.8 50.34 68.05 48.49 68.05 46.81C68.05 45.1 67.54 43.8 66.55 42.86C65.55 41.93 64.04 41.46 62.01 41.46C59.82 41.46 58.03 42.19 56.61 43.62C55.18 45.06 54.27 47.59 53.87 51.18L35.99 48.96C36.6 42.39 38.99 37.1 43.14 33.11C47.31 29.09 53.69 27.1 62.28 27.1C68.98 27.1 74.38 28.5 78.49 31.29C84.09 35.07 86.87 40.11 86.87 46.39C86.87 49.01 86.14 51.53 84.71 53.95C83.27 56.39 80.32 59.34 75.86 62.83C72.77 65.31 70.81 67.27 70 68.76C69.19 70.24 68.79 72.19 68.79 74.58ZM50.68 79.25H69.44V95.78H50.68V79.25Z" fill="white"/>
</g>
<defs>
<clipPath id="clip0_614_2">
<rect width="122.88" height="122.88" fill="white"/>
</clipPath>
</defs>
</svg>
