<svg width="37" height="41" viewBox="0 0 37 41" fill="none" xmlns="http://www.w3.org/2000/svg">
<path d="M0.647358 9.25604L23.8562 0.509747C24.5102 0.263286 25.2088 0.74661 25.2088 1.44551V17.8209C25.2088 18.2308 24.9586 18.5993 24.5775 18.7504L1.36874 27.957C0.712259 28.2175 1.90735e-06 27.7337 1.90735e-06 27.0275V10.1918C1.90735e-06 9.77555 0.257849 9.40283 0.647358 9.25604Z" fill="white"/>
<path d="M7.38087 29.015L15.9626 25.7678C16.4187 25.5952 16.9221 25.5952 17.3782 25.7678L20.7444 27.0415C21.1721 27.2033 21.1761 27.807 20.7505 27.9744L12.4841 31.2274C12.0372 31.4032 11.5419 31.4124 11.0888 31.2532L7.39207 29.9543C6.952 29.7997 6.94461 29.18 7.38087 29.015Z" fill="white"/>
<path d="M9.01974 37.0006L27.4303 29.8979C28.0959 29.6411 28.8314 29.6299 29.5045 29.8664L35.733 32.0548C36.1699 32.2083 36.1813 32.8222 35.7503 32.9918L17.687 40.0999C17.0304 40.3583 16.3036 40.377 15.6346 40.1526L9.04072 37.9412C8.59665 37.7922 8.58275 37.1692 9.01974 37.0006Z" fill="white"/>
<rect width="1.62637" height="6" transform="matrix(-1 0 0 1 15.044 21.5)" fill="white"/>
<rect width="1.62637" height="6" transform="matrix(-1 0 0 1 10.9781 22.5)" fill="white"/>
</svg>
