<svg width="461" height="381" viewBox="0 0 461 381" fill="none" xmlns="http://www.w3.org/2000/svg">
<path fill-rule="evenodd" clip-rule="evenodd" d="M459.801 222.917C458.247 233.237 454.315 243.056 448.315 251.599C442.315 260.142 434.416 267.174 425.232 272.138C422.689 273.548 420.024 274.732 417.275 275.675C420.769 321.991 347.169 338.833 307.506 327.801L322.243 379.338L284.348 380.685L218.033 285.738C195.675 292.054 169.275 295.085 152.222 267.717C150.673 265.203 149.267 262.601 148.011 259.927C143.674 260.812 139.259 261.262 134.833 261.275C122.201 261.275 101.148 257.485 90.4536 250.075C81.9748 244.454 75.2485 236.559 71.043 227.296C48.2641 230.412 28.9378 225.064 16.3062 211.843C0.306182 195.38 -4.24119 168.18 4.09566 139.001C15.0851 100.054 48.5167 56.18 114.959 39.7168C120.723 32.5514 127.621 26.3787 135.38 21.4432C177.106 -5.29367 244.854 -7.60947 296.264 17.78C316.195 14.0672 336.769 16.0368 355.632 23.4642C392.601 37.3168 419.464 66.2853 424.517 95.7169C434.525 100.903 442.719 109.009 448.011 118.959C459.085 139.759 460.643 160.601 453.19 177.443C460.209 191.502 462.529 207.443 459.801 222.917ZM432.517 201.022C426.63 204.129 420.079 205.755 413.422 205.755C406.765 205.755 400.214 204.129 394.327 201.022L397.401 180.601C410.369 181.864 420.938 177.822 426.454 169.527C432.643 160.306 431.675 146.622 423.843 131.927C415.085 115.464 396.18 112.854 385.696 112.727H385.022C358.748 112.727 331.969 127.675 321.148 147.169L305.401 139.633C308.497 129.59 313.757 120.348 320.811 112.559C314.738 107.403 310.148 100.722 307.513 93.2032C304.879 85.6844 304.295 77.5994 305.822 69.78L321.359 68.3484C322.07 74.6726 324.685 80.6314 328.858 85.436C333.031 90.2406 338.567 93.6642 344.727 95.2537C357.687 89.4689 371.759 86.5947 385.948 86.8326C387.969 86.8326 389.906 87.0431 391.885 87.1695C381.818 69.3219 365.864 55.5253 346.748 48.1379C300.096 30.0326 268.643 58.1168 261.443 67.801C244.096 91.0431 255.211 113.022 263.675 127.296L249.78 139.927C237.679 129.46 229.559 115.139 226.79 99.38C208.98 104.727 185.064 103.591 171.675 80.7274L184.306 72.0537C198.496 82.6642 221.022 81.7379 231.717 68.6432C234.265 62.8533 237.487 57.3838 241.317 52.3484C247.397 44.3189 254.733 37.3236 263.043 31.6326C228.138 22.1168 178.833 23.6747 149.022 42.7905C140.966 47.4684 134.336 54.2503 129.841 62.4095C125.346 70.5691 123.156 79.7977 123.506 89.1063C123.506 104.138 135.296 127.885 151.169 131.591L141.948 149.485C131.82 147.14 122.626 141.817 115.548 134.201L101.864 151.633L88.1799 144.98L101.569 109.948C99.3816 103.144 98.2599 96.0427 98.243 88.8958C98.2767 83.2373 98.8691 77.596 100.011 72.0537C57.9062 89.4432 37.1062 118.369 29.4851 144.812C23.6325 165.148 25.9062 183.506 35.5062 193.359C43.1272 201.191 54.7904 203.043 65.7799 202.327L95.2536 179.38L104.938 187.548L96.1799 216.264C100.769 230.875 115.801 238.412 143.211 233.106C144.633 221.481 149.221 210.471 156.475 201.275C161.794 193.62 168.831 187.321 177.022 182.875L191.422 144.096L205.822 143.464L204.264 175.254C228.475 172.769 255.548 177.696 280.769 173.906L285.401 190.748C248.432 207.843 210.58 179.969 176.264 216.727C163.927 229.948 168.643 241.443 176.264 253.022C187.254 269.57 207.885 259.633 228.98 253.022C260.938 243.254 284.138 236.18 327.885 239.759C317.443 219.927 318.454 195.969 332.432 169.612L353.022 177.738C338.58 211.043 352.096 230.327 361.443 238.833C375.885 251.969 397.611 255.927 411.969 248.012C417.468 244.976 422.197 240.715 425.788 235.561C429.38 230.407 431.738 224.496 432.685 218.285C433.633 212.563 433.561 206.719 432.475 201.022H432.517Z" fill="white"/>
</svg>
