<svg width="11" height="7" viewBox="0 0 11 7" fill="none" xmlns="http://www.w3.org/2000/svg">
<path d="M0.299975 6.41992C0.219975 6.41992 0.147975 6.39192 0.0839747 6.33592C0.0279747 6.27192 -2.5332e-05 6.19992 -2.5332e-05 6.11992V0.299921C-2.5332e-05 0.211921 0.0279747 0.139922 0.0839747 0.0839219C0.147975 0.0279217 0.219975 -7.84397e-05 0.299975 -7.84397e-05H3.71997C3.80797 -7.84397e-05 3.87997 0.0279217 3.93597 0.0839219C3.99197 0.139922 4.01997 0.211921 4.01997 0.299921C4.01997 0.379922 3.99197 0.451922 3.93597 0.515922C3.87997 0.571922 3.80797 0.599922 3.71997 0.599922H0.599975V2.91592H3.10797C3.19597 2.91592 3.26797 2.94392 3.32397 2.99992C3.37997 3.05592 3.40797 3.12792 3.40797 3.21592C3.40797 3.29592 3.37997 3.36792 3.32397 3.43192C3.26797 3.48792 3.19597 3.51592 3.10797 3.51592H0.599975V6.11992C0.599975 6.19992 0.571975 6.27192 0.515975 6.33592C0.459975 6.39192 0.387975 6.41992 0.299975 6.41992ZM10.0873 6.41992C9.99929 6.41992 9.92329 6.38392 9.85929 6.31192L7.90329 4.03192H6.29529V6.11992C6.29529 6.19992 6.26729 6.27192 6.21129 6.33592C6.15529 6.39192 6.08329 6.41992 5.99529 6.41992C5.91529 6.41992 5.84329 6.39192 5.77929 6.33592C5.72329 6.27192 5.69529 6.19992 5.69529 6.11992V0.299921C5.69529 0.211921 5.72329 0.139922 5.77929 0.0839219C5.84329 0.0279217 5.91529 -7.84397e-05 5.99529 -7.84397e-05H7.75929C8.23129 -7.84397e-05 8.63529 0.0879216 8.97129 0.263922C9.31529 0.439922 9.57929 0.679922 9.76329 0.983922C9.95529 1.27992 10.0513 1.62392 10.0513 2.01592C10.0513 2.44792 9.93129 2.83992 9.69129 3.19192C9.45929 3.54392 9.09529 3.78792 8.59929 3.92392L10.3153 5.92792C10.3633 5.97592 10.3873 6.03992 10.3873 6.11992C10.3873 6.19192 10.3593 6.25992 10.3033 6.32392C10.2473 6.38792 10.1753 6.41992 10.0873 6.41992ZM6.29529 0.599922V3.43192H7.75929C8.31129 3.43192 8.73129 3.29592 9.01929 3.02392C9.30729 2.74392 9.45129 2.40792 9.45129 2.01592C9.45129 1.59192 9.29129 1.25192 8.97129 0.995922C8.65929 0.731922 8.25529 0.599922 7.75929 0.599922H6.29529Z" fill="white"/>
</svg>
